<?xml version="1.0" encoding="UTF-8"?>
<svg version="1.1" xmlns="http://www.w3.org/2000/svg" width="617" height="233">
<path d="M0 0 C19 0 19 0 25 4 C26.73107488 7.46214977 26.48819473 11.21490582 26 15 C24.90291271 17.36185168 23.6695627 18.96522046 22 21 C22.804375 21.61875 23.60875 22.2375 24.4375 22.875 C27.00888041 25.00736424 27.87074225 25.73476544 28.203125 28.98828125 C28.30001129 33.7922267 28.32714243 37.22923858 25 41 C19 44 19 44 0 44 C0 29.48 0 14.96 0 0 Z M6 5 C6 9.62 6 14.24 6 19 C10.09806991 19.20837644 13.07163509 19.33579156 16.9375 17.9375 C19.3126065 16.03811195 19.3126065 16.03811195 20 12.5 C20.32357511 9.10978441 20.32357511 9.10978441 18.75 7.125 C15.77141055 5.21019249 13.25746914 4.8810251 9.8125 4.9375 C8.554375 4.958125 7.29625 4.97875 6 5 Z M6 24 C6 28.95 6 33.9 6 39 C13.99272137 39.46183697 13.99272137 39.46183697 21 36 C22.3309316 32.60030189 22.3309316 32.60030189 22 29 C19.82946501 26.05427395 18.47817177 25.15939059 15 24 C13.43881572 23.93259135 11.8749748 23.91485544 10.3125 23.9375 C8.889375 23.958125 7.46625 23.97875 6 24 Z " fill="#000000" transform="translate(216,91)"/>
<path d="M0 0 C3.0625 2 3.0625 2 5 4 C5.804375 3.34 6.60875 2.68 7.4375 2 C11.43893456 -0.65498028 15.33731277 -0.867277 20 0 C23.49890004 2.11391877 24.70578686 3.11736059 26 7 C26.08291953 8.9920303 26.10738177 10.98673713 26.09765625 12.98046875 C26.09443359 14.14384766 26.09121094 15.30722656 26.08789062 16.50585938 C26.07532227 18.32827148 26.07532227 18.32827148 26.0625 20.1875 C26.05798828 21.41404297 26.05347656 22.64058594 26.04882812 23.90429688 C26.03703065 26.93624668 26.02056921 29.96809906 26 33 C24.02 33 22.04 33 20 33 C19.98541748 32.25838623 19.97083496 31.51677246 19.95581055 30.75268555 C19.88140543 27.39709369 19.78471994 24.04250506 19.6875 20.6875 C19.65366211 18.93663086 19.65366211 18.93663086 19.61914062 17.15039062 C19.58369141 16.03212891 19.54824219 14.91386719 19.51171875 13.76171875 C19.48553467 12.73006592 19.45935059 11.69841309 19.43237305 10.63549805 C19.19971484 7.98379474 19.19971484 7.98379474 17.65551758 6.14770508 C15.92417951 4.72886024 15.92417951 4.72886024 13 4.875 C9.73948107 5.73080839 9.73948107 5.73080839 8.35546875 8.91796875 C6.49879114 13.64868155 6.43919896 18.40936147 6.3125 23.4375 C6.27833984 24.35982422 6.24417969 25.28214844 6.20898438 26.23242188 C6.12717006 28.48815951 6.05780878 30.74354119 6 33 C4.35 33 2.7 33 1 33 C0.98018066 32.43079834 0.96036133 31.86159668 0.93994141 31.27514648 C0.84388242 28.66218288 0.73453593 26.04993198 0.625 23.4375 C0.5940625 22.54224609 0.563125 21.64699219 0.53125 20.72460938 C0.30127783 15.49274255 -0.32404444 10.96655124 -2 6 C-4.80045046 5.14349347 -4.80045046 5.14349347 -8 5 C-10.71795028 7.04857687 -11.85494001 8.29390297 -12.54589844 11.65722656 C-12.5668457 12.64174805 -12.58779297 13.62626953 -12.609375 14.640625 C-12.64160156 15.71054688 -12.67382812 16.78046875 -12.70703125 17.8828125 C-12.72121094 18.99398437 -12.73539062 20.10515625 -12.75 21.25 C-12.77964844 22.37664062 -12.80929688 23.50328125 -12.83984375 24.6640625 C-12.91048912 27.44278021 -12.96321277 30.22066148 -13 33 C-14.98 33 -16.96 33 -19 33 C-19 22.44 -19 11.88 -19 1 C-16.33333333 1 -13.66666667 1 -11 1 C-7.54765812 -0.72617094 -3.77455234 -0.50110436 0 0 Z " fill="#000000" transform="translate(80,102)"/>
<path d="M0 0 C2.31 0 4.62 0 7 0 C8.98 7.26 10.96 14.52 13 22 C15.31 14.74 17.62 7.48 20 0 C21.98 0 23.96 0 26 0 C28.47226689 7.29318732 30.75161726 14.63460827 33 22 C34.98 14.74 36.96 7.48 39 0 C40.98 0 42.96 0 45 0 C43.52143235 7.16134532 41.5420279 14.08132273 39.375 21.0625 C39.05015625 22.11888672 38.7253125 23.17527344 38.390625 24.26367188 C37.59685528 26.84342348 36.79992286 29.42215108 36 32 C33.69 32 31.38 32 29 32 C28.1602972 29.08503169 27.32803997 26.1682814 26.5 23.25 C26.26152344 22.425 26.02304687 21.6 25.77734375 20.75 C25.43896484 19.55117187 25.43896484 19.55117187 25.09375 18.328125 C24.88427734 17.5949707 24.67480469 16.86181641 24.45898438 16.10644531 C24 14 24 14 24 10 C23.34 10 22.68 10 22 10 C21.85304688 10.87398437 21.85304688 10.87398437 21.703125 11.765625 C20.42923534 18.75005451 18.3666891 25.31352884 16 32 C14.02 32 12.04 32 10 32 C7.34847606 25.27736698 5.30190589 18.44423099 3.3125 11.5 C2.99216797 10.39140625 2.67183594 9.2828125 2.34179688 8.140625 C1.55837568 5.42788294 0.7778521 2.71434315 0 0 Z " fill="#000000" transform="translate(306,103)"/>
<path d="M0 0 C1.134375 0.020625 2.26875 0.04125 3.4375 0.0625 C5.72079116 6.0055499 7.99892627 11.95055703 10.2734375 17.89697266 C11.04828367 19.92086826 11.82432192 21.94430788 12.6015625 23.96728516 C13.71665976 26.87023606 14.82750063 29.77478414 15.9375 32.6796875 C16.28748047 33.58806366 16.63746094 34.49643982 16.99804688 35.43234253 C17.31837891 36.27306305 17.63871094 37.11378357 17.96875 37.97998047 C18.25298828 38.72166473 18.53722656 39.463349 18.83007812 40.22750854 C19.4375 42.0625 19.4375 42.0625 19.4375 44.0625 C17.1275 44.0625 14.8175 44.0625 12.4375 44.0625 C10.4575 38.6175 10.4575 38.6175 8.4375 33.0625 C2.4975 32.7325 -3.4425 32.4025 -9.5625 32.0625 C-10.036875 33.856875 -10.51125 35.65125 -11 37.5 C-12.4375 42.9375 -12.4375 42.9375 -13.5625 44.0625 C-15.89547433 44.10342937 -18.22955225 44.10491723 -20.5625 44.0625 C-19.08888719 40.02756175 -17.61379264 35.99316893 -16.13745117 31.95922852 C-15.63771636 30.59315867 -15.1383539 29.22695254 -14.6394043 27.8605957 C-4.4932867 0.07882959 -4.4932867 0.07882959 0 0 Z M-0.5625 8.0625 C-4.5808841 17.38188459 -4.5808841 17.38188459 -7.5625 27.0625 C-2.9425 27.0625 1.6775 27.0625 6.4375 27.0625 C4.55159966 20.68636075 2.58114744 14.35661375 0.4375 8.0625 C0.1075 8.0625 -0.2225 8.0625 -0.5625 8.0625 Z " fill="#000000" transform="translate(469.5625,90.9375)"/>
<path d="M0 0 C3.57152806 1.36781926 4.66892282 2.49156005 6.75 5.6875 C9.43581011 12.8048968 9.46943759 18.85579819 7 26 C4.81068194 30.01374978 3.25303115 32.33378565 -1 34 C-3.47265625 34.265625 -3.47265625 34.265625 -6.0625 34.25 C-6.91972656 34.25515625 -7.77695312 34.2603125 -8.66015625 34.265625 C-11 34 -11 34 -14 32 C-14.33 36.95 -14.66 41.9 -15 47 C-16.98 47 -18.96 47 -21 47 C-21 31.82 -21 16.64 -21 1 C-19.02 1 -17.04 1 -15 1 C-14.67 1.66 -14.34 2.32 -14 3 C-13.44183594 2.51273437 -12.88367188 2.02546875 -12.30859375 1.5234375 C-8.4404239 -1.02916189 -4.47850104 -0.52346116 0 0 Z M-13 7 C-15.42136226 10.63204338 -15.32929639 12.55143835 -15.375 16.875 C-15.40335938 18.08929688 -15.43171875 19.30359375 -15.4609375 20.5546875 C-14.92218852 24.58160787 -13.87438628 26.18278957 -11 29 C-7.39745485 30.22639835 -5.75482032 30.32594514 -2.25 28.8125 C1.03653337 26.16501478 1.87473173 24.14052388 2.3359375 19.94140625 C2.34882812 18.82636719 2.36171875 17.71132812 2.375 16.5625 C2.41753906 14.89380859 2.41753906 14.89380859 2.4609375 13.19140625 C1.90413666 9.33626821 0.73480344 7.72491265 -2 5 C-6.70847006 3.39711657 -9.10798293 3.97287561 -13 7 Z " fill="#000000" transform="translate(530,102)"/>
<path d="M0 0 C3.57152806 1.36781926 4.66892282 2.49156005 6.75 5.6875 C9.43581011 12.8048968 9.46943759 18.85579819 7 26 C4.81068194 30.01374978 3.25303115 32.33378565 -1 34 C-3.47265625 34.265625 -3.47265625 34.265625 -6.0625 34.25 C-6.91972656 34.25515625 -7.77695313 34.2603125 -8.66015625 34.265625 C-11 34 -11 34 -14 32 C-14.33 36.95 -14.66 41.9 -15 47 C-16.98 47 -18.96 47 -21 47 C-21 31.82 -21 16.64 -21 1 C-19.02 1 -17.04 1 -15 1 C-14.67 1.66 -14.34 2.32 -14 3 C-13.44183594 2.51273437 -12.88367188 2.02546875 -12.30859375 1.5234375 C-8.4404239 -1.02916189 -4.47850104 -0.52346116 0 0 Z M-13 7 C-15.42136226 10.63204338 -15.32929639 12.55143835 -15.375 16.875 C-15.40335937 18.08929688 -15.43171875 19.30359375 -15.4609375 20.5546875 C-14.92218852 24.58160787 -13.87438628 26.18278957 -11 29 C-7.39745485 30.22639835 -5.75482032 30.32594514 -2.25 28.8125 C1.03653337 26.16501478 1.87473173 24.14052388 2.3359375 19.94140625 C2.34882813 18.82636719 2.36171875 17.71132812 2.375 16.5625 C2.41753906 14.89380859 2.41753906 14.89380859 2.4609375 13.19140625 C1.90413666 9.33626821 0.73480344 7.72491265 -2 5 C-6.70847006 3.39711657 -9.10798293 3.97287561 -13 7 Z " fill="#000000" transform="translate(136,102)"/>
<path d="M0 0 C0.68449219 0.00064453 1.36898438 0.00128906 2.07421875 0.00195312 C7.10932037 0.04682037 7.10932037 0.04682037 8.25 1.1875 C8.29080783 3.18708364 8.29254356 5.18795254 8.25 7.1875 C7.36957031 7.08050781 6.48914063 6.97351563 5.58203125 6.86328125 C4.42058594 6.74339844 3.25914063 6.62351562 2.0625 6.5 C0.91394531 6.37238281 -0.23460938 6.24476562 -1.41796875 6.11328125 C-5.17865365 6.19704797 -6.82883688 6.86554983 -9.75 9.1875 C-11.00203161 12.05130658 -11.00203161 12.05130658 -9.75 15.1875 C-6.64213864 17.6033999 -3.22935226 19.36448609 0.25 21.1875 C4.91931849 23.95450355 7.75653868 26.29647972 10.25 31.1875 C10.71888682 35.00557842 10.58017877 37.38039634 9.125 40.9375 C6.58915813 43.98051024 5.06551879 44.93758867 1.25 46.1875 C-5.51815864 46.73859689 -11.35438922 46.60511793 -17.75 44.1875 C-17.75 41.8775 -17.75 39.5675 -17.75 37.1875 C-17.13253906 37.41566406 -16.51507813 37.64382812 -15.87890625 37.87890625 C-9.63207396 39.99921614 -5.24389936 40.33964343 1.25 39.1875 C1.91 37.2075 2.57 35.2275 3.25 33.1875 C-1.20085692 28.37824074 -6.05902323 25.54048134 -11.7890625 22.34765625 C-15.15025092 19.89549636 -16.31835391 18.05956772 -17.75 14.1875 C-17.65739783 8.90917611 -16.5430386 5.87517642 -12.75 2.1875 C-8.56024498 0.00154086 -4.62522654 -0.08466214 0 0 Z " fill="#000000" transform="translate(28.75,89.8125)"/>
<path d="M0 0 C1.98 0 3.96 0 6 0 C6.33 5.28 6.66 10.56 7 16 C8.32 15.34 9.64 14.68 11 14 C13.21875 13.734375 13.21875 13.734375 15.5 13.75 C16.2528125 13.74484375 17.005625 13.7396875 17.78125 13.734375 C20.50466893 14.06041811 21.81067737 14.29519959 24 16 C27.40837565 22.61761026 27.36637298 28.67079449 27.1875 36 C27.16719727 37.59134766 27.16719727 37.59134766 27.14648438 39.21484375 C27.11140879 41.81043687 27.06225844 44.40494067 27 47 C25.02 47 23.04 47 21 47 C20.98018066 46.35973877 20.96036133 45.71947754 20.93994141 45.05981445 C20.84436399 42.1436472 20.73481786 39.22816428 20.625 36.3125 C20.5940625 35.30509766 20.563125 34.29769531 20.53125 33.25976562 C20.49257813 32.28330078 20.45390625 31.30683594 20.4140625 30.30078125 C20.36693115 28.95753784 20.36693115 28.95753784 20.31884766 27.5871582 C19.96668658 24.72969194 19.31519008 22.56085101 18 20 C15.19833907 18.65776386 15.19833907 18.65776386 12 19 C9.11025843 20.71030532 9.11025843 20.71030532 7 24 C6.2436654 27.93308945 6.20947389 31.81569312 6.1875 35.8125 C6.16236328 36.88693359 6.13722656 37.96136719 6.11132812 39.06835938 C6.05256705 41.71260771 6.01620624 44.35520488 6 47 C4.02 47 2.04 47 0 47 C0 31.49 0 15.98 0 0 Z " fill="#000000" transform="translate(546,88)"/>
<path d="M0 0 C3.67930728 2.09215512 4.6704934 3.01148019 6 7 C6.08291953 8.9920303 6.10738177 10.98673713 6.09765625 12.98046875 C6.09443359 14.14384766 6.09121094 15.30722656 6.08789062 16.50585938 C6.07951172 17.72080078 6.07113281 18.93574219 6.0625 20.1875 C6.05798828 21.41404297 6.05347656 22.64058594 6.04882812 23.90429688 C6.03703065 26.93624668 6.02056921 29.96809906 6 33 C3.33333333 33 0.66666667 33 -2 33 C-2.99 33.495 -2.99 33.495 -4 34 C-8.74349584 34.51212964 -12.73407859 34.62004314 -17.0625 32.5 C-19.69397156 29.10455283 -20.28011946 26.26121122 -20 22 C-18.71454349 18.597321 -17.46822484 17.32775739 -14.5 15.25 C-9.71836187 13.5422721 -5.04513289 13.26033604 0 13 C-0.66 10.69 -1.32 8.38 -2 6 C-7.71271928 4.3887202 -11.68670645 5.91010454 -17 8 C-17.3125 5.6875 -17.3125 5.6875 -17 3 C-11.75640455 -1.01149379 -6.33474272 -0.80608068 0 0 Z M-5.875 17.75 C-7.20144531 17.95882812 -7.20144531 17.95882812 -8.5546875 18.171875 C-11.55243691 19.18708726 -12.46584424 20.26920275 -14 23 C-14.00635246 25.63537508 -14.00635246 25.63537508 -13 28 C-10.19333909 30.28441618 -10.19333909 30.28441618 -7.0625 29.9375 C-3.15004898 28.73981091 -2.00484853 27.54703971 0 24 C0.33465889 20.29059225 0.33465889 20.29059225 0 17 C-1.9824377 17 -3.92556138 17.42226829 -5.875 17.75 Z " fill="#000000" transform="translate(598,102)"/>
<path d="M0 0 C5.12265002 2.33664738 6.86611017 4.89563854 9 10 C9.77169571 16.11794794 9.91737263 21.95355336 7.375 27.625 C2.91013001 32.08986999 -0.10243632 34.2378474 -6.5 34.4375 C-11.02608318 34.24098078 -14.29764344 33.79934277 -18 31 C-22.61230654 25.53805805 -22.6057727 20.26228847 -22.3828125 13.25390625 C-21.72744074 7.68324629 -19.41747783 5.34660394 -15.5 1.625 C-10.33445176 -0.77329025 -5.60018267 -0.75283663 0 0 Z M-13 7 C-16.7841535 11.06682521 -16.56024472 14.72976416 -16.41015625 20.07421875 C-15.76991919 24.64124313 -14.62574306 26.14569163 -11 29 C-7.03927849 30.20236189 -5.01168797 30.42715714 -1.1875 28.8125 C1.93547656 26.22489085 2.87282475 24.20073253 3.30078125 20.16015625 C3.30464844 19.13792969 3.30851562 18.11570312 3.3125 17.0625 C3.32925781 16.04285156 3.34601563 15.02320312 3.36328125 13.97265625 C2.95028131 10.59316214 1.98903356 8.73613397 0 6 C-4.76619205 2.77128926 -8.53919563 3.79737122 -13 7 Z " fill="#000000" transform="translate(294,102)"/>
<path d="M0 0 C3.71581672 1.72572515 5.60542916 4.17498824 7.375 7.875 C8 11 8 11 8 18 C0.74 18 -6.52 18 -14 18 C-13.01 20.97 -12.02 23.94 -11 27 C-6.48169351 29.25915325 -3.74822799 29.02486505 1 28 C3.86673164 27.03973184 3.86673164 27.03973184 6 26 C6.3125 28.3125 6.3125 28.3125 6 31 C0.73184782 35.02295257 -4.64252657 34.77530164 -11 34 C-15.6005696 31.82078282 -17.79197911 29.52895193 -20 25 C-20.43359375 21.44140625 -20.43359375 21.44140625 -20.4375 17.5625 C-20.45683594 16.28503906 -20.47617187 15.00757812 -20.49609375 13.69140625 C-19.792916 8.45909939 -17.32257535 5.52296556 -13.9375 1.625 C-9.38667977 -0.89247502 -5.07582317 -0.85589394 0 0 Z M-12 7 C-13.73523928 9.64417414 -14 10.78465943 -14 14 C-8.72 14 -3.44 14 2 14 C1.62483106 8.16468415 1.62483106 8.16468415 -1.375 5.625 C-5.77619905 2.90044821 -8.03754085 4.15515753 -12 7 Z " fill="#000000" transform="translate(400,102)"/>
<path d="M0 0 C3.71581672 1.72572515 5.60542916 4.17498824 7.375 7.875 C8 11 8 11 8 18 C0.74 18 -6.52 18 -14 18 C-13.01 20.97 -12.02 23.94 -11 27 C-6.48169351 29.25915325 -3.74822799 29.02486505 1 28 C3.86673164 27.03973184 3.86673164 27.03973184 6 26 C6.3125 28.3125 6.3125 28.3125 6 31 C0.73184782 35.02295257 -4.64252657 34.77530164 -11 34 C-15.6005696 31.82078282 -17.79197911 29.52895193 -20 25 C-20.43359375 21.44140625 -20.43359375 21.44140625 -20.4375 17.5625 C-20.45683594 16.28503906 -20.47617188 15.00757812 -20.49609375 13.69140625 C-19.792916 8.45909939 -17.32257535 5.52296556 -13.9375 1.625 C-9.38667977 -0.89247502 -5.07582317 -0.85589394 0 0 Z M-12 7 C-13.73523928 9.64417414 -14 10.78465943 -14 14 C-8.72 14 -3.44 14 2 14 C1.62483106 8.16468415 1.62483106 8.16468415 -1.375 5.625 C-5.77619905 2.90044821 -8.03754085 4.15515753 -12 7 Z " fill="#000000" transform="translate(185,102)"/>
<path d="M0 0 C0.9796875 -0.00257812 1.959375 -0.00515625 2.96875 -0.0078125 C5.5 0.125 5.5 0.125 7.5 1.125 C7.5 2.775 7.5 4.425 7.5 6.125 C6.46939453 5.98191406 6.46939453 5.98191406 5.41796875 5.8359375 C4.51691406 5.72507812 3.61585938 5.61421875 2.6875 5.5 C1.34751953 5.32597656 1.34751953 5.32597656 -0.01953125 5.1484375 C-2.75690391 4.88999257 -2.75690391 4.88999257 -5.5 7.125 C-5.42132751 9.52875129 -5.42132751 9.52875129 -4.5 12.125 C-2.06071794 13.96072763 -2.06071794 13.96072763 0.9375 15.3125 C6.37371134 17.99871134 6.37371134 17.99871134 8.5 20.125 C9.46186608 23.09075376 9.61214329 24.73249849 8.75 27.75 C6.82665021 31.40436461 5.44023373 32.81158876 1.5 34.125 C-0.51906808 34.21916778 -2.54124313 34.25491192 -4.5625 34.25 C-5.62597656 34.25257813 -6.68945312 34.25515625 -7.78515625 34.2578125 C-10.5 34.125 -10.5 34.125 -12.5 33.125 C-12.5 31.145 -12.5 29.165 -12.5 27.125 C-10.9840625 27.6509375 -10.9840625 27.6509375 -9.4375 28.1875 C-5.57662622 29.3142448 -2.44605414 28.93031717 1.5 28.125 C1.91780879 25.75194422 1.91780879 25.75194422 1.5 23.125 C-0.5745356 21.4759288 -0.5745356 21.4759288 -3.5 20.125 C-4.92578632 19.28614452 -6.34210092 18.43104206 -7.75 17.5625 C-8.43578125 17.14871094 -9.1215625 16.73492187 -9.828125 16.30859375 C-11.5 15.125 -11.5 15.125 -12.5 13.125 C-12.875 9.8125 -12.875 9.8125 -12.5 6.125 C-8.49351093 1.27503955 -6.14086725 -0.01616018 0 0 Z " fill="#000000" transform="translate(366.5,101.875)"/>
<path d="M0 0 C1.98 0 3.96 0 6 0 C6 15.51 6 31.02 6 47 C4.02 47 2.04 47 0 47 C0 31.49 0 15.98 0 0 Z " fill="#000000" transform="translate(494,88)"/>
<path d="M0 0 C1.98 0 3.96 0 6 0 C6 15.51 6 31.02 6 47 C4.02 47 2.04 47 0 47 C0 31.49 0 15.98 0 0 Z " fill="#000000" transform="translate(151,88)"/>
<path d="M0 0 C0 1.98 0 3.96 0 6 C-0.928125 5.938125 -1.85625 5.87625 -2.8125 5.8125 C-5.95454422 5.70063043 -5.95454422 5.70063043 -7.8125 7.375 C-9.97483676 10.33398714 -10.17076674 12.38763027 -10.31640625 16.0078125 C-10.35830078 16.99394531 -10.40019531 17.98007813 -10.44335938 18.99609375 C-10.48267578 20.02863281 -10.52199219 21.06117187 -10.5625 22.125 C-10.60568359 23.16527344 -10.64886719 24.20554687 -10.69335938 25.27734375 C-10.7996288 27.85142528 -10.90166583 30.42560508 -11 33 C-12.98 33 -14.96 33 -17 33 C-17 22.44 -17 11.88 -17 1 C-14.33333333 1 -11.66666667 1 -9 1 C-6.04335481 -0.4783226 -3.25770263 -0.06032783 0 0 Z " fill="#000000" transform="translate(432,102)"/>
<path d="M0 0 C0 1.98 0 3.96 0 6 C-0.928125 5.938125 -1.85625 5.87625 -2.8125 5.8125 C-5.95454422 5.70063043 -5.95454422 5.70063043 -7.8125 7.375 C-9.97483676 10.33398714 -10.17076674 12.38763027 -10.31640625 16.0078125 C-10.35830078 16.99394531 -10.40019531 17.98007813 -10.44335938 18.99609375 C-10.48267578 20.02863281 -10.52199219 21.06117187 -10.5625 22.125 C-10.60568359 23.16527344 -10.64886719 24.20554687 -10.69335938 25.27734375 C-10.7996288 27.85142528 -10.90166583 30.42560508 -11 33 C-12.98 33 -14.96 33 -17 33 C-17 22.44 -17 11.88 -17 1 C-14.33333333 1 -11.66666667 1 -9 1 C-6.04335481 -0.4783226 -3.25770263 -0.06032783 0 0 Z " fill="#000000" transform="translate(269,102)"/>
<path d="M0 0 C1.98 0 3.96 0 6 0 C6 10.56 6 21.12 6 32 C4.02 32 2.04 32 0 32 C0 21.44 0 10.88 0 0 Z " fill="#000000" transform="translate(46,103)"/>
<path d="M0 0 C2.5 0.125 2.5 0.125 3.5 1.125 C3.625 3.625 3.625 3.625 3.5 6.125 C2.5 7.125 2.5 7.125 0 7.25 C-2.5 7.125 -2.5 7.125 -3.5 6.125 C-3.625 3.625 -3.625 3.625 -3.5 1.125 C-2.5 0.125 -2.5 0.125 0 0 Z " fill="#000000" transform="translate(48.5,87.875)"/>
</svg>
